<svg id="physhical_document-48" data-name="physhical document-48" xmlns="http://www.w3.org/2000/svg" width="141.245" height="129.698" viewBox="0 0 141.245 129.698">
  <path id="Path_4077" data-name="Path 4077" d="M35.912,23.8H12.7A8.861,8.861,0,0,0,3.84,32.661v110.1a8.861,8.861,0,0,0,9.049,8.857L36.1,151.08a8.861,8.861,0,0,0,8.672-8.857V32.661A8.861,8.861,0,0,0,35.912,23.8Zm-.841,112.533a3.427,3.427,0,0,1-3.431,3.431H21.222a5.656,5.656,0,0,1-5.656-5.656v-10a3.506,3.506,0,0,1,3.507-3.51H29.407a5.656,5.656,0,0,1,5.656,5.656Zm.713-65.9a3.646,3.646,0,0,1-3.642,3.646H15.988a3.642,3.642,0,0,1-3.642-3.646v-34a3.639,3.639,0,0,1,3.642-3.642H32.141a3.642,3.642,0,0,1,3.642,3.642Z" transform="translate(-3.84 -21.919)" fill="#582f08"/>
  <rect id="Rectangle_798" data-name="Rectangle 798" width="13.491" height="5.068" transform="translate(13.513 18.784)" fill="#582f08"/>
  <rect id="Rectangle_799" data-name="Rectangle 799" width="13.491" height="5.068" transform="translate(13.513 28.976)" fill="#582f08"/>
  <rect id="Rectangle_800" data-name="Rectangle 800" width="13.491" height="5.068" transform="translate(13.513 39.167)" fill="#582f08"/>
  <path id="Path_4078" data-name="Path 4078" d="M50.439,296.277v.754a5.656,5.656,0,0,1-5.656,5.656H34.166a5.656,5.656,0,0,1-5.656-5.656V286.206a5.656,5.656,0,0,1,5.656-5.656h.268a3.507,3.507,0,0,0-3.507,3.51v10a5.656,5.656,0,0,0,5.656,5.656H47.008a3.427,3.427,0,0,0,3.431-3.435Z" transform="translate(-19.208 -181.862)" fill="#e3bc97"/>
  <path id="Path_4079" data-name="Path 4079" d="M301.98,23.8h-23.23a8.861,8.861,0,0,0-8.861,8.861v110.1a8.861,8.861,0,0,0,9.049,8.857l23.211-.535a8.861,8.861,0,0,0,8.672-8.857V32.661A8.861,8.861,0,0,0,301.98,23.8Zm-.841,112.533a3.427,3.427,0,0,1-3.431,3.431H287.276a5.656,5.656,0,0,1-5.656-5.656v-10a3.507,3.507,0,0,1,3.507-3.51h10.331a5.656,5.656,0,0,1,5.656,5.656Zm.713-65.9a3.642,3.642,0,0,1-3.642,3.646H282.038a3.642,3.642,0,0,1-3.642-3.646v-34a3.639,3.639,0,0,1,3.642-3.642H298.21a3.638,3.638,0,0,1,3.642,3.642Z" transform="translate(-169.577 -21.919)" fill="#582f08"/>
  <rect id="Rectangle_801" data-name="Rectangle 801" width="13.491" height="5.068" transform="translate(113.826 18.784)" fill="#582f08"/>
  <rect id="Rectangle_802" data-name="Rectangle 802" width="13.491" height="5.068" transform="translate(113.826 28.976)" fill="#582f08"/>
  <rect id="Rectangle_803" data-name="Rectangle 803" width="13.491" height="5.068" transform="translate(113.826 39.167)" fill="#582f08"/>
  <path id="Path_4080" data-name="Path 4080" d="M316.489,296.277v.754a5.656,5.656,0,0,1-5.656,5.656H300.216a5.656,5.656,0,0,1-5.656-5.656V286.206a5.656,5.656,0,0,1,5.656-5.656h.268a3.507,3.507,0,0,0-3.507,3.51v10a5.656,5.656,0,0,0,5.656,5.656h10.414a3.427,3.427,0,0,0,3.442-3.435Z" transform="translate(-184.945 -181.862)" fill="#e3bc97"/>
  <path id="Path_4081" data-name="Path 4081" d="M164.469,22.781l-22.887-3.846A8.861,8.861,0,0,0,131.376,26.2L113.138,134.764A8.861,8.861,0,0,0,120.611,145l22.973,3.318a8.864,8.864,0,0,0,10.007-7.3L171.738,32.984A8.857,8.857,0,0,0,164.469,22.781Zm-17.8,100.92L145,133.633a3.431,3.431,0,0,1-3.951,2.817l-10.274-1.727a5.656,5.656,0,0,1-4.649-6.527l1.655-9.856a3.51,3.51,0,0,1,4.042-2.877l10.2,1.712a5.656,5.656,0,0,1,4.649,6.527Zm15.583-88.485-5.633,33.527a3.646,3.646,0,0,1-4.2,2.99L136.5,69.056a3.639,3.639,0,0,1-2.99-4.2l5.629-33.534a3.642,3.642,0,0,1,4.2-2.99l15.926,2.673a3.646,3.646,0,0,1,2.99,4.208Z" transform="translate(-71.851 -18.811)" fill="#8d531c"/>
  <rect id="Rectangle_804" data-name="Rectangle 804" width="13.491" height="5.068" transform="translate(71.514 17.567) rotate(9.54)" fill="#582f08"/>
  <rect id="Rectangle_805" data-name="Rectangle 805" width="13.491" height="5.068" transform="translate(69.822 27.619) rotate(9.54)" fill="#582f08"/>
  <rect id="Rectangle_806" data-name="Rectangle 806" width="13.491" height="5.068" transform="translate(68.135 37.667) rotate(9.54)" fill="#582f08"/>
  <path id="Path_4082" data-name="Path 4082" d="M161.751,293.08l-.124.754a5.656,5.656,0,0,1-6.527,4.649l-10.463-1.746a5.656,5.656,0,0,1-4.649-6.527l1.795-10.682a5.656,5.656,0,0,1,6.527-4.66l.264.045a3.51,3.51,0,0,0-4.042,2.877l-1.655,9.856a5.656,5.656,0,0,0,4.649,6.527L157.8,295.9A3.431,3.431,0,0,0,161.751,293.08Z" transform="translate(-88.604 -178.273)" fill="#e3bc97"/>
</svg>
